<svg width="24" height="24" viewBox="0 0 24 24" fill="none" xmlns="http://www.w3.org/2000/svg">
<path d="M15 18V17H17V15H15V12.09C15.768 11.5957 16.3994 10.9164 16.8363 10.1143C17.2731 9.31227 17.5013 8.41329 17.5 7.5C17.5 6.04131 16.9205 4.64236 15.8891 3.61091C14.8576 2.57946 13.4587 2 12 2C10.5413 2 9.14237 2.57946 8.11092 3.61091C7.07947 4.64236 6.50001 6.04131 6.50001 7.5C6.49867 8.41329 6.72691 9.31227 7.16375 10.1143C7.6006 10.9164 8.23202 11.5957 9.00001 12.09V20.781L15 22.281V20H18V18H15ZM13 19.719L11 19.219V10.894L10.447 10.617C9.73938 10.2666 9.17101 9.68729 8.83426 8.97308C8.49751 8.25887 8.41216 7.45178 8.59207 6.68293C8.77198 5.91409 9.20659 5.22867 9.82528 4.73804C10.444 4.24742 11.2104 3.98041 12 3.98041C12.7896 3.98041 13.556 4.24742 14.1747 4.73804C14.7934 5.22867 15.228 5.91409 15.4079 6.68293C15.5879 7.45178 15.5025 8.25887 15.1658 8.97308C14.829 9.68729 14.2606 10.2666 13.553 10.617L13 10.894V19.719Z" fill="#8A8A8E"/>
</svg>
